<svg id="Layer_1" data-name="Layer 1" xmlns="http://www.w3.org/2000/svg" viewBox="0 0 600 600"><path d="M327.61,67.47l-6.16-.4c.29-4.58-2.15-7.08-6.84-7.38-3.92-.25-6.48,1.48-6.67,4.43-.21,3.31,2.22,4.49,7.94,6.28,6.71,2.11,12.3,4.26,11.81,11.89-.42,6.72-6.1,10.76-14.24,10.24-8.76-.56-13.82-5.33-13.29-13.62l6.26.4c-.33,5.19,2.36,7.86,7.4,8.18,4.53.29,7.31-1.63,7.52-5,.24-3.66-2.36-4.65-7.82-6.37-6.76-2.17-12.35-4.21-11.87-11.8.39-6.16,5.7-10.06,13.38-9.57C323.84,55.27,328.11,59.68,327.61,67.47Z"/><path d="M368.34,77.14l-6-1.41c.6-4.78-1.85-8.4-6.57-9.51-6-1.41-10.85,2.69-12.76,10.83s.54,14,6.45,15.35c4.72,1.11,8.57-1,10.35-5.68l6.11,1.43c-2.6,7.93-9.22,11.56-17.71,9.57-9.73-2.29-14-10.69-11.36-22.11s10.34-17,20.17-14.7C365.65,62.94,369.75,69.56,368.34,77.14Z"/><path d="M396.08,74.59c8.22,3.5,10.47,8.5,8,14.32-1.77,4.18-5.5,6.3-9.7,5.63l0,.09c2.05,1.82,2.53,3.68,2.26,8.5L396,114l-6.15-2.61.76-9.6c.28-4.32-.63-6.2-4.06-7.66l-4.84-2.06L376,105.52l-5.64-2.4L384.58,69.7Zm-12.41,12.9,5.59,2.38c4.64,2,7.53.54,8.9-2.81,1.51-3.57-.25-6.2-4.66-8.08l-5.26-2.23Z"/><path d="M437.76,119c-6.37,9.79-15.71,12.35-24.42,6.67s-10.15-15.25-3.78-25S425.27,88.3,434,94,444.13,109.23,437.76,119Zm-22.9-14.92c-4.54,7-4,13.48,1.45,17s11.62,1.42,16.15-5.55,4-13.48-1.45-17S419.4,97.13,414.86,104.09Z"/><path d="M455,151.8l-3.58,3.9-17.66-16.2,24.55-26.75,4.51,4.14-21,22.84Z"/><path d="M474.84,175.85l-4.11,3.35L455.6,160.61l28.16-22.93,3.86,4.75-24,19.58Z"/><path d="M520.46,193.05c5.2,11,2.24,20-8.27,25s-19.36,1.55-24.55-9.42l-5-10.51,32.82-15.54Zm-30.4,8.24,2.33,4.93c3.62,7.66,9.44,9.7,17.1,6.08s9.76-9.42,6.13-17.07l-2.33-4.94Z"/><path d="M523.79,259.19c-11.3,2.93-19.92-1.47-22.54-11.54s2.79-18.11,14.09-21,19.93,1.47,22.54,11.54S535.09,256.26,523.79,259.19Zm-6.86-26.46c-8,2.09-12,7.28-10.39,13.55s7.62,8.88,15.66,6.79,12-7.28,10.4-13.55S525,230.65,516.93,232.73Z"/><path d="M508.77,297.52l14.91-4.3c5.25-1.51,10.49-2.92,15.79-4.18v-.11c-5.4-.77-10.75-1.7-16.1-2.74l-15.25-2.93-.37-8.21,35.92-9.64.27,6L530.11,275c-5.35,1.42-10.85,2.79-16.21,3.95v.1c5.45.88,11.06,1.85,16.57,2.93l14.06,2.73.36,8-13.75,4c-5.4,1.58-10.89,3.05-16.24,4.41v.11c5.44.67,11.05,1.54,16.5,2.42l14.09,2.37.28,6-36.64-6.36Z"/><path d="M504.79,340.7l16.28-5.24c5.52-1.77,11.13-3.47,16.66-5l0-.1q-8.21-1.06-16.35-2.42l-14.09-2.35,1-5.84,35.82,6-1.45,8.7-16.28,5.2c-5.52,1.77-11.13,3.47-16.66,5l0,.1c5.46.75,10.91,1.56,16.34,2.47l14.09,2.35-1,5.78-35.82-6Z"/><path d="M512.64,379.38a6.5,6.5,0,0,1,3.54,8.48,6.48,6.48,0,1,1-12-4.88A6.53,6.53,0,0,1,512.64,379.38Z"/><path d="M487.5,440.27l3.43-5.13c3.81,2.55,7.21,1.69,9.82-2.21,2.18-3.26,2-6.35-.49-8-2.75-1.84-5-.33-9.41,3.71-5.2,4.74-9.86,8.5-16.22,4.25-5.59-3.74-6.24-10.68-1.7-17.46,4.88-7.3,11.54-9.28,18.45-4.66L487.9,416c-4.33-2.9-8-1.91-10.8,2.29-2.52,3.77-2.26,7.14.58,9,3.05,2,5.21.29,9.44-3.57,5.27-4.76,9.85-8.57,16.16-4.35,5.14,3.43,5.85,10,1.57,16.38C499.94,443.13,494,444.61,487.5,440.27Z"/><path d="M458.7,470.64l4.24-4.49c3.84,2.92,8.19,2.61,11.52-.92,4.23-4.49,3.11-10.73-3-16.47s-12.35-6.53-16.51-2.11c-3.33,3.52-3.41,7.93-.27,11.81L450.4,463c-5.56-6.22-5.39-13.77.6-20.11,6.85-7.28,16.29-6.8,24.82,1.25s9.54,17.47,2.61,24.82C472.34,475.44,464.55,475.67,458.7,470.64Z"/><path d="M447.1,495.91c-7.13,5.37-12.59,4.83-16.39-.22-2.74-3.63-2.72-7.92,0-11.23l-.06-.08c-2.6.88-4.46.36-8.5-2.28l-9.14-6,5.33-4,7.94,5.45c3.6,2.4,5.69,2.55,8.66.31l4.2-3.17-8.78-11.64,4.89-3.69,21.86,29Zm-5-17.2-4.85,3.66c-4,3-4.23,6.25-2,9.11,2.34,3.1,5.5,2.89,9.33,0l4.56-3.44Z"/><path d="M387.82,509.87c-5.3-10.41-2.86-19.78,6.41-24.5s18.28-1.19,23.58,9.22,2.86,19.78-6.41,24.5S393.12,520.27,387.82,509.87Zm24.36-12.41c-3.78-7.41-9.7-10.17-15.48-7.23s-7,9.36-3.25,16.77,9.71,10.17,15.48,7.23S416,504.87,412.18,497.46Z"/><path d="M350.8,508.38l-1.59-5.07,22.87-7.18L383,530.78l-5.84,1.83L367.83,503Z"/><path d="M320,513.5l-.83-5.24,23.67-3.76,5.71,35.86-6,1-4.87-30.62Z"/><path d="M282.35,544.36c-12.1-1-18.43-8.05-17.49-19.64s8.34-17.53,20.43-16.55l11.59.94-2.94,36.19Zm8-30.45-5.43-.45c-8.44-.68-13.12,3.34-13.8,11.77s3.27,13.16,11.71,13.85l5.44.44Z"/><path d="M223.38,514.21c3.1-11.26,11.22-16.53,21.25-13.77s14.3,11.46,11.2,22.72-11.22,16.53-21.25,13.76S220.28,525.47,223.38,514.21Zm26.35,7.27c2.21-8-.31-14.05-6.55-15.77s-11.5,2.17-13.7,10.18.3,14.05,6.55,15.77S247.52,529.49,249.73,521.48Z"/><path d="M197.68,482,194,497.11c-1.31,5.3-2.72,10.55-4.28,15.77l.09,0c3.38-4.29,6.86-8.45,10.43-12.58l10.17-11.73,7.29,3.78L208,528.32l-5.35-2.77,3.81-13.76c1.45-5.34,3-10.8,4.69-16l-.09,0c-3.49,4.28-7.13,8.65-10.82,12.88l-9.4,10.81-7.16-3.71,3.43-13.91c1.33-5.45,2.81-10.95,4.3-16.27l-.09,0c-3.31,4.37-6.86,8.79-10.35,13.07l-9.1,11-5.34-2.77,23.82-28.55Z"/><path d="M162.34,456.94l-3.63,16.71c-1.24,5.66-2.58,11.37-4,16.94l.08.06q5-6.56,10.29-12.93l9.1-11,4.56,3.77-23.14,28-6.8-5.62,3.67-16.68c1.24-5.66,2.58-11.37,4-16.94l-.08-.06c-3.39,4.34-6.82,8.65-10.33,12.89l-9.1,11-4.52-3.74,23.14-28Z"/><path d="M124.93,444.37a6.51,6.51,0,0,1-9.12-1.17,6.48,6.48,0,0,1,10.22-8A6.52,6.52,0,0,1,124.93,444.37Z"/><path d="M84.71,392.2l2.74,5.53c-4.12,2-5.07,5.4-3,9.61,1.74,3.52,4.52,4.88,7.17,3.57,3-1.47,2.78-4.16,1.48-10-1.52-6.87-2.45-12.78,4.41-16.17,6-3,12.36-.08,16,7.23,3.88,7.87,2.28,14.63-5.17,18.32l-2.78-5.63c4.66-2.3,5.64-6,3.4-10.49-2-4.07-5.06-5.52-8.13-4-3.29,1.63-2.84,4.37-1.61,10,1.49,6.94,2.51,12.81-4.3,16.17-5.53,2.74-11.56.09-15-6.82C76,401.55,77.72,395.66,84.71,392.2Z"/><path d="M72.8,352.06,74.57,358c-4.44,1.86-6.36,5.79-5,10.43,1.77,5.91,7.74,8.07,15.75,5.67s11.83-7.42,10.09-13.24c-1.39-4.64-5.15-6.92-10.08-6.14l-1.8-6c8.17-1.7,14.61,2.23,17.11,10.59,2.87,9.57-2.27,17.5-13.51,20.86S67.27,379.64,64.37,370C61.83,361.47,65.53,354.61,72.8,352.06Z"/><path d="M56.76,329.3c-1.07-8.86,2.14-13.31,8.42-14.07,4.51-.54,8.21,1.63,9.72,5.61H75c.55-2.69,1.93-4,6.24-6.2L91,309.7l.8,6.63-8.7,4.14c-3.88,1.9-5,3.64-4.61,7.33l.63,5.22,14.48-1.75.74,6.07L58.26,341.7Zm17.37,4.32-.73-6c-.6-5-3.28-6.79-6.87-6.31-3.85.47-5.25,3.31-4.68,8.07l.69,5.67Z"/><path d="M74.38,271c11.67.61,18.56,7.41,18,17.8s-8.12,16.43-19.78,15.81-18.56-7.41-18-17.8S62.72,270.42,74.38,271Zm-1.44,27.3c8.31.44,13.66-3.32,14-9.79s-4.59-10.76-12.89-11.2-13.66,3.32-14,9.79S64.64,297.9,72.94,298.34Z"/><path d="M94.16,239.74l5.17,1.15-5.19,23.4-35.45-7.87,1.32-6,30.28,6.73Z"/><path d="M105.08,210.51l5,1.89-8.57,22.39-33.91-13,2.18-5.72,29,11.08Z"/><path d="M97.27,162.41c6.93-10,16.22-11.89,25.77-5.26s11,16,4,26l-6.63,9.55L90.64,172Zm22.3,22.26,3.11-4.48c4.83-6.95,3.7-13-3.25-17.85s-13-3.77-17.86,3.18L98.46,170Z"/><path d="M152.91,126.53c8.19,8.32,8.69,18,1.27,25.29s-17.07,6.64-25.26-1.69-8.69-18-1.28-25.28S144.72,118.2,152.91,126.53ZM133.43,145.7c5.83,5.92,12.31,6.77,16.93,2.23s3.87-11-2-17-12.31-6.77-16.93-2.22S127.6,139.77,133.43,145.7Z"/><path d="M193.58,120.34l-11.2-10.76c-3.93-3.77-7.78-7.61-11.53-11.57l-.08.06c2,5.06,3.9,10.16,5.69,15.31L181.55,128l-6.91,4.43-26.33-26.25,5.07-3.25,10,10.17c3.9,3.92,7.84,8,11.53,12l.09,0c-2-5.16-3.94-10.5-5.77-15.81l-4.68-13.54,6.79-4.34,10.34,9.9c4.06,3.88,8.09,7.9,11.95,11.85l.09-.06c-2.14-5-4.2-10.33-6.17-15.49l-5-13.38L187.64,81l12.85,34.89Z"/><path d="M233,102.24,220.3,90.74c-4.29-3.9-8.56-7.91-12.67-11.93l-.09,0q3.17,7.64,6.05,15.38l5,13.38L213,109.67l-12.68-34,8.26-3.08,12.62,11.52C225.53,88,229.8,92,233.91,96l.09,0c-2.06-5.11-4.08-10.24-6-15.4L223,67.2l5.5-2,12.67,34Z"/><path d="M262.59,76.16a6.5,6.5,0,0,1,5.59-7.3,6.48,6.48,0,1,1,1.76,12.83A6.53,6.53,0,0,1,262.59,76.16Z"/></svg>